<svg width="198" height="48" viewBox="0 0 198 48" fill="none" xmlns="http://www.w3.org/2000/svg">
<path fill-rule="evenodd" clip-rule="evenodd" d="M150.025 23.9382C150.025 37.1351 160.707 47.8693 173.834 47.8693C186.966 47.8693 197.649 37.1393 197.649 23.9382C197.649 10.737 186.966 0.000244141 173.832 0.000244141C170.041 0.00278673 166.266 0.922075 162.922 2.65669C161.521 3.38585 160.978 5.10548 161.711 6.49826C162.442 7.89047 164.17 8.43628 165.574 7.70514C168.141 6.37085 170.92 5.69508 173.834 5.69254C183.806 5.69254 191.923 13.8828 191.923 23.9382C191.923 33.9936 183.806 42.177 173.834 42.177C163.862 42.177 155.753 33.9936 155.753 23.9382C155.753 20.5433 156.68 17.2362 158.437 14.3673C159.26 13.0251 158.828 11.2738 157.48 10.4557C156.125 9.63949 154.365 10.0647 153.543 11.4094C151.241 15.1685 150.025 19.5008 150.025 23.9382ZM87.7073 45.7311C88.2658 46.2874 88.9991 46.5648 89.7318 46.5648C90.4646 46.5648 91.1962 46.2874 91.7558 45.7311C92.8745 44.6231 92.8745 42.8184 91.7592 41.7062L83.1318 33.1263C82.0136 32.0138 80.2016 32.0138 79.0835 33.1263C77.9642 34.2341 77.9642 36.0387 79.0795 37.1498L87.7073 45.7311ZM78.1214 1.37769H57.7186C56.5291 1.37769 55.511 2.09583 55.0778 3.11993C54.9224 3.47194 54.8328 3.85842 54.8328 4.26608V43.6378C54.8328 45.2111 56.1133 46.4847 57.6964 46.4847C59.2796 46.4847 60.5598 45.2111 60.5598 43.6378V7.0714H78.1214C82.9223 7.0714 86.8299 10.9531 86.8299 15.7286C86.8299 20.5042 82.9223 24.387 78.1214 24.387H68.0935C66.5104 24.387 65.2296 25.6603 65.2296 27.2336C65.2296 28.8069 66.5104 30.0802 68.0935 30.0802H78.1214C86.0795 30.0802 92.5571 23.6415 92.5571 15.7286C92.5571 7.81582 86.0795 1.37769 78.1214 1.37769ZM126.747 23.6845H138.347C139.926 23.6845 141.21 24.9575 141.21 26.5313V43.7588C141.21 45.3312 139.93 46.6059 138.346 46.6059C136.763 46.6059 135.482 45.3312 135.482 43.7588V29.377H126.747C125.167 29.377 123.883 28.1052 123.883 26.5313C123.883 24.9575 125.167 23.6845 126.747 23.6845ZM124.18 47.9999C111.047 47.9999 100.366 37.2628 100.366 24.0614C100.366 10.8599 111.047 0.129639 124.18 0.129639C129.35 0.129639 134.27 1.76933 138.409 4.87412C139.669 5.82024 139.918 7.60712 138.969 8.86033C138.017 10.1144 136.222 10.3664 134.957 9.41716C131.82 7.06583 128.095 5.82222 124.18 5.82222C114.208 5.82222 106.092 14.0051 106.092 24.0614C106.092 34.1176 114.208 42.3078 124.18 42.3078C125.441 42.3078 126.714 42.1739 127.955 41.9098C129.511 41.5674 131.026 42.5593 131.356 44.0975C131.686 45.635 130.702 47.1461 129.152 47.4755C127.519 47.8241 125.844 47.9999 124.18 47.9999H124.18ZM20.7237 43.6354C20.7237 45.2084 22.0056 46.482 23.587 46.482C25.1688 46.482 26.4515 45.2084 26.4515 43.6354V26.6351C26.4515 25.0634 25.1685 23.7899 23.587 23.7899C22.0056 23.7899 20.7237 25.0634 20.7237 26.6351V43.6354ZM29.5694 19.2537C28.7489 19.2537 27.934 18.9036 27.3684 18.2293C26.3551 17.0187 26.5222 15.2265 27.737 14.2199L42.4154 2.07959C43.6299 1.07329 45.4345 1.23602 46.4464 2.44714C47.4593 3.65515 47.2934 5.44796 46.0777 6.45285L31.4004 18.596C30.865 19.0373 30.2161 19.2537 29.5694 19.2537ZM16.0706 18.5956C16.6058 19.0368 17.2542 19.2532 17.9005 19.2532C18.7214 19.2532 19.5374 18.9032 20.1041 18.2289C21.1151 17.0183 20.948 15.2232 19.7335 14.2195L5.04599 2.07917C3.83035 1.07287 2.02323 1.2387 1.01251 2.44671C0.00150898 3.65445 0.167783 5.45036 1.38314 6.45243L16.0706 18.5956Z" fill="#F52A3B"/>
</svg>
