<svg width="655" height="648" viewBox="0 0 655 648" fill="none" xmlns="http://www.w3.org/2000/svg">
<g opacity="0.25" clip-path="url(#clip0_1672_6026)">
<path fill-rule="evenodd" clip-rule="evenodd" d="M325.812 648C303.558 648 285.512 629.816 285.512 607.357V364.628C285.512 342.184 303.558 324 325.812 324C348.081 324 366.127 342.184 366.127 364.628V607.357C366.127 629.816 348.081 648 325.812 648Z" fill="#F52A3B"/>
<path fill-rule="evenodd" clip-rule="evenodd" d="M409.564 255.064C398.078 255.064 386.688 250.121 378.765 240.602C364.592 223.527 366.93 198.24 383.92 184.034L589.309 12.7479C606.298 -1.44213 631.56 0.85379 645.718 17.9298C659.892 34.9738 657.57 60.2769 640.564 74.451L435.191 245.784C427.699 252.018 418.616 255.064 409.564 255.064Z" fill="#F52A3B"/>
<mask id="mask0_1672_6026" style="mask-type:alpha" maskUnits="userSpaceOnUse" x="0" y="3" width="285" height="257">
<path fill-rule="evenodd" clip-rule="evenodd" d="M0 259.59V3.16211H284.823V259.59H0Z" fill="white"/>
</mask>
<g mask="url(#mask0_1672_6026)">
<path fill-rule="evenodd" clip-rule="evenodd" d="M244.845 259.59C235.836 259.59 226.779 256.487 219.324 250.132L14.405 75.5124C-2.55133 61.1152 -4.88302 35.278 9.234 17.907C23.3351 0.552255 48.5555 -1.83646 65.4959 12.6258L270.415 187.197C287.371 201.643 289.702 227.448 275.586 244.851C267.686 254.553 256.297 259.59 244.845 259.59Z" fill="#F52A3B"/>
</g>
</g>
<defs>
<clipPath id="clip0_1672_6026">
<rect width="655" height="648" fill="white"/>
</clipPath>
</defs>
</svg>
