<svg width="65" height="63" viewBox="0 0 65 63" fill="none" xmlns="http://www.w3.org/2000/svg">
<g clip-path="url(#clip0_4_507)">
<path fill-rule="evenodd" clip-rule="evenodd" d="M32.3325 63C30.1241 63 28.3333 61.2321 28.3333 59.0486V35.4499C28.3333 33.2679 30.1241 31.5 32.3325 31.5C34.5424 31.5 36.3332 33.2679 36.3332 35.4499V59.0486C36.3332 61.2321 34.5424 63 32.3325 63Z" fill="#F52A3B"/>
<path fill-rule="evenodd" clip-rule="evenodd" d="M40.6437 24.7979C39.5039 24.7979 38.3736 24.3173 37.5874 23.3919C36.1809 21.7318 36.4129 19.2733 38.0989 17.8922L58.481 1.23936C60.167 -0.140228 62.6739 0.0829871 64.0789 1.74315C65.4855 3.40021 65.255 5.86023 63.5674 7.23827L43.1869 23.8957C42.4434 24.5018 41.542 24.7979 40.6437 24.7979Z" fill="#F52A3B"/>
<mask id="mask0_4_507" style="mask-type:alpha" maskUnits="userSpaceOnUse" x="0" y="0" width="29" height="26">
<path fill-rule="evenodd" clip-rule="evenodd" d="M0 25.2379V0.307434H28.2649V25.2379H0Z" fill="white"/>
</mask>
<g mask="url(#mask0_4_507)">
<path fill-rule="evenodd" clip-rule="evenodd" d="M24.2976 25.2379C23.4036 25.2379 22.5048 24.9362 21.765 24.3184L1.4295 7.34149C-0.253188 5.94176 -0.484576 3.42981 0.91635 1.74097C2.3157 0.0536983 4.81848 -0.178538 6.49959 1.22752L26.8351 18.1997C28.5177 19.6042 28.7491 22.113 27.3482 23.805C26.5643 24.7482 25.4341 25.2379 24.2976 25.2379Z" fill="#F52A3B"/>
</g>
</g>
<defs>
<clipPath id="clip0_4_507">
<rect width="65" height="63" fill="white"/>
</clipPath>
</defs>
</svg>
