<?xml version="1.0" encoding="utf-8"?><!-- Uploaded to: SVG Repo, www.svgrepo.com, Generator: SVG Repo Mixer Tools -->
<svg width="800px" height="800px" viewBox="0 0 128 128" xmlns="http://www.w3.org/2000/svg" xmlns:xlink="http://www.w3.org/1999/xlink" aria-hidden="true" role="img" class="iconify iconify--noto" preserveAspectRatio="xMidYMid meet"><path d="M7.26 32.16s-3.57-5.64-4.27-7.15c-.9-1.94.09-2.41 3.45-2.43c2.15-.01 22.8 0 22.8 0h18.68s-.14-6.72 0-7.08c.14-.35 31.57-.07 31.71 0c.14.07.07 7.08.07 7.08h43.05c.99 0 2.02.91 1.15 2.64s-3.29 5.07-3.29 5.07l-.27 87.63l-6.95 3.88l-100.77-.4l-5.35-3.07l-.01-86.17z" fill="#c8c8c8"></path><path fill="#e1e1e1" d="M28.96 119.32V29.81l32.94-5.02l36.34 5.31v89.22l-34.12 1.77z"></path><path fill="#9a9a9a" d="M28.97 22.57l69.32.01l-.05 7.52l-69.28-.29z"></path><path d="M7.27 118.33l39.99-.27s-.05-30.91 0-32.15c.03-.9.25-1.64 1.4-1.72s27.82-.08 28.81-.08c.98 0 1.72.57 1.72 1.97v31.93s41.17-.38 41.15-.07c-.03.31.05 4.58.05 5.16c0 .57-.25 1.4-1.81 1.4H8.6c-.66 0-1.31-.66-1.31-1.48s-.02-4.69-.02-4.69z" fill="#9a9a9a"></path><path fill="#6ca4ab" d="M54.73 32.93h17.96v10.64H54.73z"></path><path fill="#6ca4ab" d="M54.64 50.21h18.14v10.22H54.64z"></path><path fill="#6ca4ab" d="M54.47 67.5h18.31v10.98H54.47z"></path><path d="M81.72 33.27c-.09.26 0 10.56 0 10.56l10.96-.03s.15-10.4-.06-10.61s-10.82-.18-10.9.08z" fill="#6ca4ab"></path><path fill="#6ca4ab" d="M81.89 49.87l.08 10.47l10.39-.08l.17-10.22z"></path><path d="M82.4 67.58s-.26 10.13-.09 10.39s10.05.26 10.39 0c.34-.26 0-10.3 0-10.3l-10.3-.09z" fill="#6ca4ab"></path><path d="M82.45 84.49l.08 10.53s9.81.23 10.04 0s.46-10.3.15-10.53c-.31-.23-10.27 0-10.27 0z" fill="#6ca4ab"></path><path d="M82.73 101.64l.14 10.46s9.67.08 9.88-.07s.22-10.01.08-10.31s-10.1-.08-10.1-.08z" fill="#6ca4ab"></path><path d="M104.48 111.94c.12.15 10.43.15 10.43.15s.32-10.3-.05-10.45c-.27-.12-10.47-.27-10.61-.15c-.32.29.14 10.34.23 10.45z" fill="#6ca4ab"></path><path d="M104.33 85.01c-.16.4-.3 10.53-.08 10.61c.23.08 10.08.15 10.38 0c.3-.15.53-10.23.23-10.46s-10.38-.52-10.53-.15z" fill="#6ca4ab"></path><path d="M104.11 78.32c.27.34 10 .3 10.3.15c.3-.15.15-9.93-.08-10.3s-10-.15-10.23.08s-.29 9.69.01 10.07z" fill="#6ca4ab"></path><path d="M104.41 50.79c-.19.38 0 9.78.15 10.08c.15.3 9.93.3 10.08.08c.15-.23.23-9.85.08-10.08c-.16-.23-10.16-.38-10.31-.08z" fill="#6ca4ab"></path><path d="M104.63 43.72c.27.27 10.08.08 10.3 0c.23-.08.15-10 .08-10.38c-.08-.38-10.15-.15-10.46 0c-.29.15-.29 10 .08 10.38z" fill="#6ca4ab"></path><path d="M33.85 32.9c-.09.26 0 10.56 0 10.56l10.9-.17s.21-10.26 0-10.47c-.21-.22-10.81-.18-10.9.08z" fill="#6ca4ab"></path><path d="M34.1 50.17s-.27 10.21.07 10.38c.34.17 10.1.26 10.44 0c.34-.26.06-10.48.06-10.48l-10.57.1z" fill="#6ca4ab"></path><path d="M34.27 67.6c-.19.14-.26 10.13-.09 10.39c.17.26 10.05.26 10.39 0c.34-.26.26-10.05 0-10.3s-9.96-.34-10.3-.09z" fill="#6ca4ab"></path><path d="M33.93 84.64c-.27.27-.15 10.3.08 10.53s10.04 0 10.04 0l.15-10.53s-9.97-.3-10.27 0z" fill="#6ca4ab"></path><path fill="#6ca4ab" d="M33.99 101.37v10.55l9.82-.09l.22-10.38z"></path><path d="M12.86 111.83l10.3-.08l.07-10.48s-10.38-.27-10.6.11c-.22.37.23 10.45.23 10.45z" fill="#6ca4ab"></path><path d="M12.71 84.9c-.16.4-.3 10.53-.08 10.61c.23.08 10.08.15 10.38 0c.3-.15.53-10.23.23-10.46s-10.38-.53-10.53-.15z" fill="#6ca4ab"></path><path d="M12.48 78.21c.27.34 10 .3 10.3.15c.3-.15.15-9.93-.08-10.3c-.23-.38-10-.15-10.23.08c-.21.21-.29 9.69.01 10.07z" fill="#6ca4ab"></path><path d="M12.78 50.68c-.19.38 0 9.78.15 10.08c.15.3 9.93.3 10.08.08c.15-.23.23-9.85.08-10.08c-.15-.23-10.16-.38-10.31-.08z" fill="#6ca4ab"></path><path d="M13.01 43.61c.27.27 10.08.08 10.3 0c.23-.08.15-10 .08-10.38s-10.15-.15-10.46 0c-.3.15-.3 10 .08 10.38z" fill="#6ca4ab"></path><path d="M51.76 118.36c-.07-.07-.21-19.97.07-20.33c.29-.36 22.84-.14 23.05.07s.14 20.12.07 20.26s-23.19 0-23.19 0z" fill="#e1e1e1"></path><path fill="#536f7b" d="M53.88 99.97h8.47v16.66h-8.47z"></path><path fill="#536f7b" d="M64.53 99.94h8.65v16.66h-8.65z"></path></svg>