<svg width="22" height="22" viewBox="0 0 22 22" fill="none" xmlns="http://www.w3.org/2000/svg">
<g clip-path="url(#clip0_990_1457)">
<path fill-rule="evenodd" clip-rule="evenodd" d="M10.9434 21.6615C10.196 21.6615 9.58984 21.0632 9.58984 20.3241V12.3369C9.58984 11.5984 10.196 11 10.9434 11C11.6914 11 12.2975 11.5984 12.2975 12.3369V20.3241C12.2975 21.0632 11.6914 21.6615 10.9434 21.6615Z" fill="black"/>
<path fill-rule="evenodd" clip-rule="evenodd" d="M13.7564 8.73156C13.3707 8.73156 12.9881 8.56889 12.722 8.25568C12.246 7.6938 12.3245 6.86169 12.8951 6.39424L19.7937 0.757906C20.3643 0.290969 21.2128 0.366518 21.6884 0.92842C22.1644 1.48927 22.0864 2.32189 21.5152 2.78831L14.6172 8.4262C14.3656 8.63134 14.0605 8.73156 13.7564 8.73156Z" fill="black"/>
<mask id="mask0_990_1457" style="mask-type:alpha" maskUnits="userSpaceOnUse" x="0" y="0" width="10" height="9">
<path fill-rule="evenodd" clip-rule="evenodd" d="M0 8.88051V0.442505H9.56658V8.88051H0Z" fill="white"/>
</mask>
<g mask="url(#mask0_990_1457)">
<path fill-rule="evenodd" clip-rule="evenodd" d="M8.22389 8.88051C7.9213 8.88051 7.61709 8.7784 7.3667 8.56929L0.483913 2.82326C-0.0856116 2.34951 -0.163928 1.49931 0.310232 0.927702C0.783858 0.356625 1.63095 0.278022 2.19994 0.753918L9.08273 6.49835C9.65223 6.97372 9.73055 7.82285 9.2564 8.39553C8.99108 8.71477 8.60855 8.88051 8.22389 8.88051Z" fill="black"/>
</g>
</g>
<defs>
<clipPath id="clip0_990_1457">
<rect width="22" height="21.3231" fill="white" transform="translate(0 0.33844)"/>
</clipPath>
</defs>
</svg>
