<svg width="32" height="32" viewBox="0 0 32 32" fill="none" xmlns="http://www.w3.org/2000/svg">
<g id="mingcute:location-line" clip-path="url(#clip0_828_5226)">
<g id="Group">
<path id="Vector" fill-rule="evenodd" clip-rule="evenodd" d="M16 2.66669C19.1826 2.66669 22.2348 3.93097 24.4853 6.18141C26.7357 8.43184 28 11.4841 28 14.6667C28 18.7654 25.7653 22.12 23.4107 24.5267C22.234 25.7159 20.9504 26.7942 19.576 27.748L19.008 28.1347L18.7413 28.312L18.2387 28.632L17.7907 28.9054L17.236 29.228C16.8593 29.4424 16.4334 29.5551 16 29.5551C15.5666 29.5551 15.1407 29.4424 14.764 29.228L14.2093 28.9054L13.516 28.4787L13.26 28.312L12.7133 27.948C11.2306 26.9445 9.84942 25.7986 8.58933 24.5267C6.23467 22.1187 4 18.7654 4 14.6667C4 11.4841 5.26428 8.43184 7.51472 6.18141C9.76515 3.93097 12.8174 2.66669 16 2.66669ZM16 5.33335C13.5246 5.33335 11.1507 6.31668 9.40034 8.06702C7.65 9.81736 6.66667 12.1913 6.66667 14.6667C6.66667 17.7627 8.36267 20.48 10.4947 22.6614C11.4115 23.5892 12.4023 24.4409 13.4573 25.208L14.068 25.6427C14.2653 25.78 14.4547 25.908 14.6373 26.0267L15.1573 26.36L15.6147 26.6387L16 26.864L16.6067 26.5054L17.096 26.1987C17.356 26.0334 17.636 25.848 17.932 25.6427L18.5427 25.208C19.5977 24.4409 20.5885 23.5892 21.5053 22.6614C23.6373 20.4814 25.3333 17.7627 25.3333 14.6667C25.3333 12.1913 24.35 9.81736 22.5997 8.06702C20.8493 6.31668 18.4754 5.33335 16 5.33335ZM16 9.33335C17.4145 9.33335 18.771 9.89526 19.7712 10.8955C20.7714 11.8956 21.3333 13.2522 21.3333 14.6667C21.3333 16.0812 20.7714 17.4377 19.7712 18.4379C18.771 19.4381 17.4145 20 16 20C14.5855 20 13.229 19.4381 12.2288 18.4379C11.2286 17.4377 10.6667 16.0812 10.6667 14.6667C10.6667 13.2522 11.2286 11.8956 12.2288 10.8955C13.229 9.89526 14.5855 9.33335 16 9.33335ZM16 12C15.2928 12 14.6145 12.281 14.1144 12.7811C13.6143 13.2812 13.3333 13.9594 13.3333 14.6667C13.3333 15.3739 13.6143 16.0522 14.1144 16.5523C14.6145 17.0524 15.2928 17.3334 16 17.3334C16.7072 17.3334 17.3855 17.0524 17.8856 16.5523C18.3857 16.0522 18.6667 15.3739 18.6667 14.6667C18.6667 13.9594 18.3857 13.2812 17.8856 12.7811C17.3855 12.281 16.7072 12 16 12Z" fill="black"/>
</g>
</g>
<defs>
<clipPath id="clip0_828_5226">
<rect width="32" height="32" fill="white"/>
</clipPath>
</defs>
</svg>
