<svg width="24" height="24" viewBox="0 0 24 24" fill="none" xmlns="http://www.w3.org/2000/svg">
<mask id="mask0_1128_7978" style="mask-type:alpha" maskUnits="userSpaceOnUse" x="0" y="0" width="24" height="24">
<rect width="24" height="24" fill="#D9D9D9"/>
</mask>
<g mask="url(#mask0_1128_7978)">
<path d="M5 21.9995C4.45 21.9995 3.97917 21.8037 3.5875 21.412C3.19583 21.0203 3 20.5495 3 19.9995V5.99951C3 5.44951 3.19583 4.97868 3.5875 4.58701C3.97917 4.19534 4.45 3.99951 5 3.99951H6V1.99951H8V3.99951H16V1.99951H18V3.99951H19C19.55 3.99951 20.0208 4.19534 20.4125 4.58701C20.8042 4.97868 21 5.44951 21 5.99951V19.9995C21 20.5495 20.8042 21.0203 20.4125 21.412C20.0208 21.8037 19.55 21.9995 19 21.9995H5ZM5 19.9995H19V9.99951H5V19.9995ZM5 7.99951H19V5.99951H5V7.99951ZM12 13.9995C11.7167 13.9995 11.4792 13.9037 11.2875 13.712C11.0958 13.5203 11 13.2828 11 12.9995C11 12.7162 11.0958 12.4787 11.2875 12.287C11.4792 12.0953 11.7167 11.9995 12 11.9995C12.2833 11.9995 12.5208 12.0953 12.7125 12.287C12.9042 12.4787 13 12.7162 13 12.9995C13 13.2828 12.9042 13.5203 12.7125 13.712C12.5208 13.9037 12.2833 13.9995 12 13.9995ZM8 13.9995C7.71667 13.9995 7.47917 13.9037 7.2875 13.712C7.09583 13.5203 7 13.2828 7 12.9995C7 12.7162 7.09583 12.4787 7.2875 12.287C7.47917 12.0953 7.71667 11.9995 8 11.9995C8.28333 11.9995 8.52083 12.0953 8.7125 12.287C8.90417 12.4787 9 12.7162 9 12.9995C9 13.2828 8.90417 13.5203 8.7125 13.712C8.52083 13.9037 8.28333 13.9995 8 13.9995ZM16 13.9995C15.7167 13.9995 15.4792 13.9037 15.2875 13.712C15.0958 13.5203 15 13.2828 15 12.9995C15 12.7162 15.0958 12.4787 15.2875 12.287C15.4792 12.0953 15.7167 11.9995 16 11.9995C16.2833 11.9995 16.5208 12.0953 16.7125 12.287C16.9042 12.4787 17 12.7162 17 12.9995C17 13.2828 16.9042 13.5203 16.7125 13.712C16.5208 13.9037 16.2833 13.9995 16 13.9995ZM12 17.9995C11.7167 17.9995 11.4792 17.9037 11.2875 17.712C11.0958 17.5203 11 17.2828 11 16.9995C11 16.7162 11.0958 16.4787 11.2875 16.287C11.4792 16.0953 11.7167 15.9995 12 15.9995C12.2833 15.9995 12.5208 16.0953 12.7125 16.287C12.9042 16.4787 13 16.7162 13 16.9995C13 17.2828 12.9042 17.5203 12.7125 17.712C12.5208 17.9037 12.2833 17.9995 12 17.9995ZM8 17.9995C7.71667 17.9995 7.47917 17.9037 7.2875 17.712C7.09583 17.5203 7 17.2828 7 16.9995C7 16.7162 7.09583 16.4787 7.2875 16.287C7.47917 16.0953 7.71667 15.9995 8 15.9995C8.28333 15.9995 8.52083 16.0953 8.7125 16.287C8.90417 16.4787 9 16.7162 9 16.9995C9 17.2828 8.90417 17.5203 8.7125 17.712C8.52083 17.9037 8.28333 17.9995 8 17.9995ZM16 17.9995C15.7167 17.9995 15.4792 17.9037 15.2875 17.712C15.0958 17.5203 15 17.2828 15 16.9995C15 16.7162 15.0958 16.4787 15.2875 16.287C15.4792 16.0953 15.7167 15.9995 16 15.9995C16.2833 15.9995 16.5208 16.0953 16.7125 16.287C16.9042 16.4787 17 16.7162 17 16.9995C17 17.2828 16.9042 17.5203 16.7125 17.712C16.5208 17.9037 16.2833 17.9995 16 17.9995Z" fill="#334875"/>
</g>
</svg>
