<svg width="20" height="20" viewBox="0 0 20 20" fill="none" xmlns="http://www.w3.org/2000/svg">
<g id="calendar_month">
<mask id="mask0_55_924" style="mask-type:alpha" maskUnits="userSpaceOnUse" x="0" y="0" width="20" height="20">
<rect id="Bounding box" width="20" height="20" fill="#D9D9D9"/>
</mask>
<g mask="url(#mask0_55_924)">
<path id="calendar_month_2" d="M4.16667 18.3327C3.70833 18.3327 3.31597 18.1695 2.98958 17.8431C2.66319 17.5167 2.5 17.1243 2.5 16.666V4.99935C2.5 4.54102 2.66319 4.14865 2.98958 3.82227C3.31597 3.49588 3.70833 3.33268 4.16667 3.33268H5V1.66602H6.66667V3.33268H13.3333V1.66602H15V3.33268H15.8333C16.2917 3.33268 16.684 3.49588 17.0104 3.82227C17.3368 4.14865 17.5 4.54102 17.5 4.99935V16.666C17.5 17.1243 17.3368 17.5167 17.0104 17.8431C16.684 18.1695 16.2917 18.3327 15.8333 18.3327H4.16667ZM4.16667 16.666H15.8333V8.33268H4.16667V16.666ZM4.16667 6.66601H15.8333V4.99935H4.16667V6.66601ZM10 11.666C9.76389 11.666 9.56597 11.5862 9.40625 11.4264C9.24653 11.2667 9.16667 11.0688 9.16667 10.8327C9.16667 10.5966 9.24653 10.3987 9.40625 10.2389C9.56597 10.0792 9.76389 9.99935 10 9.99935C10.2361 9.99935 10.434 10.0792 10.5938 10.2389C10.7535 10.3987 10.8333 10.5966 10.8333 10.8327C10.8333 11.0688 10.7535 11.2667 10.5938 11.4264C10.434 11.5862 10.2361 11.666 10 11.666ZM6.66667 11.666C6.43056 11.666 6.23264 11.5862 6.07292 11.4264C5.91319 11.2667 5.83333 11.0688 5.83333 10.8327C5.83333 10.5966 5.91319 10.3987 6.07292 10.2389C6.23264 10.0792 6.43056 9.99935 6.66667 9.99935C6.90278 9.99935 7.10069 10.0792 7.26042 10.2389C7.42014 10.3987 7.5 10.5966 7.5 10.8327C7.5 11.0688 7.42014 11.2667 7.26042 11.4264C7.10069 11.5862 6.90278 11.666 6.66667 11.666ZM13.3333 11.666C13.0972 11.666 12.8993 11.5862 12.7396 11.4264C12.5799 11.2667 12.5 11.0688 12.5 10.8327C12.5 10.5966 12.5799 10.3987 12.7396 10.2389C12.8993 10.0792 13.0972 9.99935 13.3333 9.99935C13.5694 9.99935 13.7674 10.0792 13.9271 10.2389C14.0868 10.3987 14.1667 10.5966 14.1667 10.8327C14.1667 11.0688 14.0868 11.2667 13.9271 11.4264C13.7674 11.5862 13.5694 11.666 13.3333 11.666ZM10 14.9993C9.76389 14.9993 9.56597 14.9195 9.40625 14.7598C9.24653 14.6 9.16667 14.4021 9.16667 14.166C9.16667 13.9299 9.24653 13.732 9.40625 13.5723C9.56597 13.4125 9.76389 13.3327 10 13.3327C10.2361 13.3327 10.434 13.4125 10.5938 13.5723C10.7535 13.732 10.8333 13.9299 10.8333 14.166C10.8333 14.4021 10.7535 14.6 10.5938 14.7598C10.434 14.9195 10.2361 14.9993 10 14.9993ZM6.66667 14.9993C6.43056 14.9993 6.23264 14.9195 6.07292 14.7598C5.91319 14.6 5.83333 14.4021 5.83333 14.166C5.83333 13.9299 5.91319 13.732 6.07292 13.5723C6.23264 13.4125 6.43056 13.3327 6.66667 13.3327C6.90278 13.3327 7.10069 13.4125 7.26042 13.5723C7.42014 13.732 7.5 13.9299 7.5 14.166C7.5 14.4021 7.42014 14.6 7.26042 14.7598C7.10069 14.9195 6.90278 14.9993 6.66667 14.9993ZM13.3333 14.9993C13.0972 14.9993 12.8993 14.9195 12.7396 14.7598C12.5799 14.6 12.5 14.4021 12.5 14.166C12.5 13.9299 12.5799 13.732 12.7396 13.5723C12.8993 13.4125 13.0972 13.3327 13.3333 13.3327C13.5694 13.3327 13.7674 13.4125 13.9271 13.5723C14.0868 13.732 14.1667 13.9299 14.1667 14.166C14.1667 14.4021 14.0868 14.6 13.9271 14.7598C13.7674 14.9195 13.5694 14.9993 13.3333 14.9993Z" fill="white"/>
</g>
</g>
</svg>
