<svg width="20" height="20" viewBox="0 0 20 20" fill="none" xmlns="http://www.w3.org/2000/svg">
<mask id="mask0_226_760" style="mask-type:alpha" maskUnits="userSpaceOnUse" x="0" y="0" width="20" height="20">
<rect width="20" height="20" fill="#D9D9D9"/>
</mask>
<g mask="url(#mask0_226_760)">
<path d="M4.16667 18.3329C3.70833 18.3329 3.31597 18.1697 2.98958 17.8433C2.66319 17.5169 2.5 17.1245 2.5 16.6662V4.99953C2.5 4.5412 2.66319 4.14884 2.98958 3.82245C3.31597 3.49606 3.70833 3.33287 4.16667 3.33287H5V1.6662H6.66667V3.33287H13.3333V1.6662H15V3.33287H15.8333C16.2917 3.33287 16.684 3.49606 17.0104 3.82245C17.3368 4.14884 17.5 4.5412 17.5 4.99953V16.6662C17.5 17.1245 17.3368 17.5169 17.0104 17.8433C16.684 18.1697 16.2917 18.3329 15.8333 18.3329H4.16667ZM4.16667 16.6662H15.8333V8.33286H4.16667V16.6662ZM4.16667 6.6662H15.8333V4.99953H4.16667V6.6662ZM10 11.6662C9.76389 11.6662 9.56597 11.5863 9.40625 11.4266C9.24653 11.2669 9.16667 11.069 9.16667 10.8329C9.16667 10.5968 9.24653 10.3988 9.40625 10.2391C9.56597 10.0794 9.76389 9.99953 10 9.99953C10.2361 9.99953 10.434 10.0794 10.5938 10.2391C10.7535 10.3988 10.8333 10.5968 10.8333 10.8329C10.8333 11.069 10.7535 11.2669 10.5938 11.4266C10.434 11.5863 10.2361 11.6662 10 11.6662ZM6.66667 11.6662C6.43056 11.6662 6.23264 11.5863 6.07292 11.4266C5.91319 11.2669 5.83333 11.069 5.83333 10.8329C5.83333 10.5968 5.91319 10.3988 6.07292 10.2391C6.23264 10.0794 6.43056 9.99953 6.66667 9.99953C6.90278 9.99953 7.10069 10.0794 7.26042 10.2391C7.42014 10.3988 7.5 10.5968 7.5 10.8329C7.5 11.069 7.42014 11.2669 7.26042 11.4266C7.10069 11.5863 6.90278 11.6662 6.66667 11.6662ZM13.3333 11.6662C13.0972 11.6662 12.8993 11.5863 12.7396 11.4266C12.5799 11.2669 12.5 11.069 12.5 10.8329C12.5 10.5968 12.5799 10.3988 12.7396 10.2391C12.8993 10.0794 13.0972 9.99953 13.3333 9.99953C13.5694 9.99953 13.7674 10.0794 13.9271 10.2391C14.0868 10.3988 14.1667 10.5968 14.1667 10.8329C14.1667 11.069 14.0868 11.2669 13.9271 11.4266C13.7674 11.5863 13.5694 11.6662 13.3333 11.6662ZM10 14.9995C9.76389 14.9995 9.56597 14.9197 9.40625 14.7599C9.24653 14.6002 9.16667 14.4023 9.16667 14.1662C9.16667 13.9301 9.24653 13.7322 9.40625 13.5724C9.56597 13.4127 9.76389 13.3329 10 13.3329C10.2361 13.3329 10.434 13.4127 10.5938 13.5724C10.7535 13.7322 10.8333 13.9301 10.8333 14.1662C10.8333 14.4023 10.7535 14.6002 10.5938 14.7599C10.434 14.9197 10.2361 14.9995 10 14.9995ZM6.66667 14.9995C6.43056 14.9995 6.23264 14.9197 6.07292 14.7599C5.91319 14.6002 5.83333 14.4023 5.83333 14.1662C5.83333 13.9301 5.91319 13.7322 6.07292 13.5724C6.23264 13.4127 6.43056 13.3329 6.66667 13.3329C6.90278 13.3329 7.10069 13.4127 7.26042 13.5724C7.42014 13.7322 7.5 13.9301 7.5 14.1662C7.5 14.4023 7.42014 14.6002 7.26042 14.7599C7.10069 14.9197 6.90278 14.9995 6.66667 14.9995ZM13.3333 14.9995C13.0972 14.9995 12.8993 14.9197 12.7396 14.7599C12.5799 14.6002 12.5 14.4023 12.5 14.1662C12.5 13.9301 12.5799 13.7322 12.7396 13.5724C12.8993 13.4127 13.0972 13.3329 13.3333 13.3329C13.5694 13.3329 13.7674 13.4127 13.9271 13.5724C14.0868 13.7322 14.1667 13.9301 14.1667 14.1662C14.1667 14.4023 14.0868 14.6002 13.9271 14.7599C13.7674 14.9197 13.5694 14.9995 13.3333 14.9995Z" fill="#001A52"/>
</g>
</svg>
