<svg width="32" height="32" viewBox="0 0 32 32" fill="none" xmlns="http://www.w3.org/2000/svg">
<g id="mdi:clock-outline">
<path id="Vector" d="M16 26.6666C18.8289 26.6666 21.542 25.5428 23.5424 23.5424C25.5428 21.542 26.6666 18.8289 26.6666 16C26.6666 13.171 25.5428 10.4579 23.5424 8.45749C21.542 6.4571 18.8289 5.33329 16 5.33329C13.171 5.33329 10.4579 6.4571 8.45749 8.45749C6.4571 10.4579 5.33329 13.171 5.33329 16C5.33329 18.8289 6.4571 21.542 8.45749 23.5424C10.4579 25.5428 13.171 26.6666 16 26.6666ZM16 2.66663C17.7509 2.66663 19.4847 3.0115 21.1024 3.68157C22.7201 4.35163 24.1899 5.33375 25.428 6.57187C26.6662 7.80998 27.6483 9.27984 28.3184 10.8975C28.9884 12.5152 29.3333 14.249 29.3333 16C29.3333 19.5362 27.9285 22.9276 25.428 25.428C22.9276 27.9285 19.5362 29.3333 16 29.3333C8.62663 29.3333 2.66663 23.3333 2.66663 16C2.66663 12.4637 4.07138 9.07235 6.57187 6.57187C9.07235 4.07138 12.4637 2.66663 16 2.66663ZM16.6666 9.33329V16.3333L22.6666 19.8933L21.6666 21.5333L14.6666 17.3333V9.33329H16.6666Z" fill="black"/>
</g>
</svg>
