<svg width="32" height="32" viewBox="0 0 32 32" fill="none" xmlns="http://www.w3.org/2000/svg">
<rect width="32" height="32" fill="#1E1E1E"/>
<g clip-path="url(#clip0_0_1)">
<rect width="390" height="844" transform="translate(-31 -636)" fill="white"/>
<g filter="url(#filter0_d_0_1)">
<path d="M-31 -114C-31 -127.255 -20.2548 -138 -7 -138H335C348.255 -138 359 -127.255 359 -114V208H-31V-114Z" fill="#F52A3B"/>
</g>
<path d="M16.0001 26.6665C18.8291 26.6665 21.5422 25.5427 23.5426 23.5423C25.5429 21.5419 26.6667 18.8288 26.6667 15.9998C26.6667 13.1709 25.5429 10.4578 23.5426 8.45736C21.5422 6.45698 18.8291 5.33317 16.0001 5.33317C13.1711 5.33317 10.458 6.45698 8.45761 8.45736C6.45722 10.4578 5.33341 13.1709 5.33341 15.9998C5.33341 18.8288 6.45722 21.5419 8.45761 23.5423C10.458 25.5427 13.1711 26.6665 16.0001 26.6665ZM16.0001 2.6665C17.751 2.6665 19.4849 3.01138 21.1025 3.68144C22.7202 4.35151 24.1901 5.33363 25.4282 6.57175C26.6663 7.80986 27.6484 9.27972 28.3185 10.8974C28.9885 12.5151 29.3334 14.2489 29.3334 15.9998C29.3334 19.5361 27.9287 22.9274 25.4282 25.4279C22.9277 27.9284 19.5363 29.3332 16.0001 29.3332C8.62675 29.3332 2.66675 23.3332 2.66675 15.9998C2.66675 12.4636 4.07151 9.07223 6.57199 6.57175C9.07248 4.07126 12.4639 2.6665 16.0001 2.6665ZM16.6667 9.33317V16.3332L22.6667 19.8932L21.6667 21.5332L14.6667 17.3332V9.33317H16.6667Z" fill="white"/>
</g>
<defs>
<filter id="filter0_d_0_1" x="-41" y="-152" width="410" height="366" filterUnits="userSpaceOnUse" color-interpolation-filters="sRGB">
<feFlood flood-opacity="0" result="BackgroundImageFix"/>
<feColorMatrix in="SourceAlpha" type="matrix" values="0 0 0 0 0 0 0 0 0 0 0 0 0 0 0 0 0 0 127 0" result="hardAlpha"/>
<feOffset dy="-4"/>
<feGaussianBlur stdDeviation="5"/>
<feComposite in2="hardAlpha" operator="out"/>
<feColorMatrix type="matrix" values="0 0 0 0 0 0 0 0 0 0 0 0 0 0 0 0 0 0 0.25 0"/>
<feBlend mode="normal" in2="BackgroundImageFix" result="effect1_dropShadow_0_1"/>
<feBlend mode="normal" in="SourceGraphic" in2="effect1_dropShadow_0_1" result="shape"/>
</filter>
<clipPath id="clip0_0_1">
<rect width="390" height="844" fill="white" transform="translate(-31 -636)"/>
</clipPath>
</defs>
</svg>
