<svg width="48" height="48" viewBox="0 0 48 48" fill="none" xmlns="http://www.w3.org/2000/svg">
<mask id="mask0_1360_1700" style="mask-type:alpha" maskUnits="userSpaceOnUse" x="0" y="0" width="48" height="48">
<rect width="48" height="48" fill="#D9D9D9"/>
</mask>
<g mask="url(#mask0_1360_1700)">
<path d="M24 26.8284L16.9289 33.8994C16.1479 34.6805 14.8815 34.6805 14.1005 33.8994C13.3194 33.1184 13.3194 31.852 14.1005 31.071L21.1716 23.9999L14.1005 16.9289C13.3194 16.1478 13.3194 14.8815 14.1005 14.1004C14.8815 13.3194 16.1479 13.3194 16.9289 14.1004L24 21.1715L31.0711 14.1004C31.8521 13.3194 33.1184 13.3194 33.8995 14.1004C34.6805 14.8815 34.6805 16.1478 33.8995 16.9289L26.8284 23.9999L33.8995 31.071C34.6805 31.852 34.6805 33.1184 33.8995 33.8994C33.1184 34.6805 31.8521 34.6805 31.0711 33.8994L24 26.8284Z" fill="#2B2B2B"/>
</g>
</svg>
