<svg width="48" height="48" viewBox="0 0 48 48" fill="none" xmlns="http://www.w3.org/2000/svg">
<g id="icon/close">
<mask id="mask0_1024_206" style="mask-type:alpha" maskUnits="userSpaceOnUse" x="0" y="0" width="48" height="48">
<rect id="Bounding box" width="48" height="48" fill="#D9D9D9"/>
</mask>
<g mask="url(#mask0_1024_206)">
<path id="add" d="M24 26.8285L16.9289 33.8995C16.1479 34.6806 14.8815 34.6806 14.1005 33.8995C13.3194 33.1185 13.3194 31.8522 14.1005 31.0711L21.1716 24.0001L14.1005 16.929C13.3194 16.1479 13.3194 14.8816 14.1005 14.1006C14.8815 13.3195 16.1479 13.3195 16.9289 14.1006L24 21.1716L31.0711 14.1006C31.8521 13.3195 33.1184 13.3195 33.8995 14.1006C34.6805 14.8816 34.6805 16.1479 33.8995 16.929L26.8284 24.0001L33.8995 31.0711C34.6805 31.8522 34.6805 33.1185 33.8995 33.8995C33.1184 34.6806 31.8521 34.6806 31.0711 33.8995L24 26.8285Z" fill="#F52A3B"/>
</g>
</g>
</svg>
