<svg width="48" height="48" viewBox="0 0 48 48" fill="none" xmlns="http://www.w3.org/2000/svg">
<g id="icon/close">
<mask id="mask0_606_1310" style="mask-type:alpha" maskUnits="userSpaceOnUse" x="0" y="0" width="48" height="48">
<rect id="Bounding box" width="48" height="48" fill="#D9D9D9"/>
</mask>
<g mask="url(#mask0_606_1310)">
<path id="add" d="M24.0001 26.8285L16.929 33.8995C16.1479 34.6806 14.8816 34.6806 14.1006 33.8995C13.3195 33.1185 13.3195 31.8522 14.1006 31.0711L21.1716 24.0001L14.1006 16.929C13.3195 16.1479 13.3195 14.8816 14.1006 14.1006C14.8816 13.3195 16.1479 13.3195 16.929 14.1006L24.0001 21.1716L31.0711 14.1006C31.8522 13.3195 33.1185 13.3195 33.8995 14.1006C34.6806 14.8816 34.6806 16.1479 33.8995 16.929L26.8285 24.0001L33.8995 31.0711C34.6806 31.8522 34.6806 33.1185 33.8995 33.8995C33.1185 34.6806 31.8522 34.6806 31.0711 33.8995L24.0001 26.8285Z" fill="white"/>
</g>
</g>
</svg>
