<svg width="32" height="32" viewBox="0 0 32 32" fill="none" xmlns="http://www.w3.org/2000/svg">
<g id="icon/image">
<path id="Vector (Stroke)" fill-rule="evenodd" clip-rule="evenodd" d="M6.66666 5.33329C5.93028 5.33329 5.33332 5.93025 5.33332 6.66663V25.3333C5.33332 26.0697 5.93028 26.6666 6.66666 26.6666H25.3333C26.0697 26.6666 26.6667 26.0697 26.6667 25.3333V6.66663C26.6667 5.93025 26.0697 5.33329 25.3333 5.33329H6.66666ZM2.66666 6.66663C2.66666 4.45749 4.45752 2.66663 6.66666 2.66663H25.3333C27.5425 2.66663 29.3333 4.45749 29.3333 6.66663V25.3333C29.3333 27.5424 27.5425 29.3333 25.3333 29.3333H6.66666C4.45752 29.3333 2.66666 27.5424 2.66666 25.3333V6.66663Z" fill="#2B2B2B"/>
<path id="Vector (Stroke)_2" fill-rule="evenodd" clip-rule="evenodd" d="M12 10.6667C11.2636 10.6667 10.6667 11.2636 10.6667 12C10.6667 12.7364 11.2636 13.3333 12 13.3333C12.7364 13.3333 13.3333 12.7364 13.3333 12C13.3333 11.2636 12.7364 10.6667 12 10.6667ZM8 12C8 9.79086 9.79086 8 12 8C14.2091 8 16 9.79086 16 12C16 14.2091 14.2091 16 12 16C9.79086 16 8 14.2091 8 12Z" fill="#2B2B2B"/>
<path id="Vector (Stroke)_3" fill-rule="evenodd" clip-rule="evenodd" d="M19.172 14.9424C19.9221 14.1925 20.9393 13.7712 22 13.7712C23.0606 13.7712 24.0779 14.1925 24.828 14.9424L28.9428 19.0572C29.4635 19.5779 29.4635 20.4221 28.9428 20.9428C28.4221 21.4635 27.5779 21.4635 27.0572 20.9428L22.9427 16.8283C22.9426 16.8282 22.9427 16.8283 22.9427 16.8283C22.6926 16.5784 22.3535 16.4379 22 16.4379C21.6465 16.4379 21.3075 16.5783 21.0575 16.8281C21.0574 16.8282 21.0575 16.8281 21.0575 16.8281L8.9428 28.9428C8.4221 29.4635 7.57788 29.4635 7.05718 28.9428C6.53648 28.4221 6.53648 27.5779 7.05718 27.0572L19.172 14.9424Z" fill="#2B2B2B"/>
</g>
</svg>
