<svg width="18" height="18" viewBox="0 0 18 18" fill="none" xmlns="http://www.w3.org/2000/svg">
<g id="icon/pencil">
<path id="Vector" d="M11.9856 3.60537C12.1382 3.42488 12.3269 3.27796 12.5398 3.17398C12.7526 3.07001 12.9849 3.01125 13.2218 3.00146C13.4588 2.99168 13.6952 3.03107 13.916 3.11713C14.1368 3.2032 14.3371 3.33404 14.5042 3.50133C14.6713 3.66862 14.8015 3.86868 14.8865 4.08877C14.9715 4.30885 15.0095 4.54413 14.998 4.7796C14.9865 5.01508 14.9257 5.24559 14.8196 5.45644C14.7136 5.66729 14.5644 5.85385 14.3818 6.00424L6.29473 14.1004L3 15L3.89856 11.7016L11.9856 3.60537Z" stroke="#F52A3B" stroke-width="1.5" stroke-linecap="round" stroke-linejoin="round"/>
<path id="Vector_2" d="M11.25 5.25L12.75 6.75" stroke="#F52A3B" stroke-width="2" stroke-linecap="round" stroke-linejoin="round"/>
</g>
</svg>
