<svg width="24" height="24" viewBox="0 0 24 24" fill="none" xmlns="http://www.w3.org/2000/svg">
<g id="icon/pencil">
<path id="Vector" d="M15.9808 4.80716C16.1843 4.5665 16.4359 4.37061 16.7197 4.23198C17.0035 4.09334 17.3132 4.015 17.6291 4.00195C17.9451 3.9889 18.2603 4.04143 18.5546 4.15618C18.849 4.27093 19.1161 4.44539 19.3389 4.66844C19.5617 4.89149 19.7353 5.15824 19.8487 5.45169C19.9621 5.74513 20.0127 6.05884 19.9973 6.37281C19.982 6.68677 19.901 6.99412 19.7595 7.27525C19.6181 7.55638 19.4193 7.80513 19.1757 8.00565L8.39298 18.8006L4 20L5.19808 15.6021L15.9808 4.80716Z" stroke="white" stroke-width="2" stroke-linecap="round" stroke-linejoin="round"/>
<path id="Vector_2" d="M15 7L17 9" stroke="white" stroke-width="2" stroke-linecap="round" stroke-linejoin="round"/>
</g>
</svg>
