<?xml version="1.0" encoding="utf-8"?><!-- Uploaded to: SVG Repo, www.svgrepo.com, Generator: SVG Repo Mixer Tools -->
<svg fill="#000000" width="800px" height="800px" viewBox="0 -0.9 112.347 112.347" xmlns="http://www.w3.org/2000/svg">
  <path id="_factory_" data-name="
factory
" d="M589.031,1194.132a3.732,3.732,0,0,1-1.416-.437,1.456,1.456,0,0,1-.777-1.5,1.541,1.541,0,0,1,1.029-1.366,3.8,3.8,0,0,1,1.473-.207c2.868.254,5.556-.716,8.317-1.178a.624.624,0,0,0,.509-.888c-1.054-3.186-1.017-6.538-1.462-9.814-.392-2.881-.464-5.805-.735-8.706a105.777,105.777,0,0,0-2.045-14.593c-.045-.2-.133-.382-.168-.58a2.125,2.125,0,0,1,1.352-2.392,7,7,0,0,1,2.932-.566q3.461-.171,6.918-.377c.738-.045,1.044-.382,1.136-1.135.01-.1.016-.2.024-.3.246-3.709.482-7.417.735-11.125.328-4.807.693-9.612,1-14.422.135-2.106.123-4.223.26-6.328.095-1.4.3-2.786.513-4.168a2.325,2.325,0,0,1,1.485-1.77,4.815,4.815,0,0,1,.868-.25,39.15,39.15,0,0,1,7.428-1.094,3.066,3.066,0,0,1,3.392,2.706c1.311,5.872,2.7,11.725,3.975,17.6a75.258,75.258,0,0,1,2.18,15.78,5.87,5.87,0,0,0,.086,1.2c.427,2,.548,1.99,2.339,1.929,1.61-.055,3.219-.083,4.828-.139a1.434,1.434,0,0,0,1.568-1.454,5.224,5.224,0,0,0-.035-1.191c-.069-.5-.235-.978-.291-1.475-.165-1.447.518-2.238,2.025-2.4.1-.01.2-.019.3-.023,4.012-.145,8.023-.307,12.035-.422a28.579,28.579,0,0,0,5.381-.525,49.192,49.192,0,0,1,5.976-.662,4.744,4.744,0,0,1,1.5.066c1.76.423,2.319,1.007,2.342,2.624.024,1.508.016,3.016.043,4.525a.893.893,0,0,0,.912.973c1.707.009,3.416-.006,5.125-.033a.731.731,0,0,0,.567-.906c-.143-.481-.379-.933-.494-1.417a1.72,1.72,0,0,1,1.619-2.336,15.06,15.06,0,0,1,3.883.24,17.823,17.823,0,0,0,3.556.527c2.208.077,2.7.577,2.953,2.888.034.3.043.6.066.9a.991.991,0,0,0,.929.992,20.487,20.487,0,0,1,2.083.293,2.585,2.585,0,0,1,2.281,2.756c-.037,3.516-.176,7.032-.292,10.547-.028.8-.182,1.6-.184,2.4q-.022,8.9.01,17.8a5.6,5.6,0,0,0,.168,1.482.986.986,0,0,0,.6.588,6.111,6.111,0,0,0,1.486.142c.635.005,1.269,0,1.9,0,1.075-.005,2.15-.011,3.224.029a3.749,3.749,0,0,1,1.693.491,2.458,2.458,0,0,1,1,2.65,1.951,1.951,0,0,1-1.683,1.864,16.445,16.445,0,0,1-2.973.329c-3.721.037-7.443.015-11.164.015v-.006c-3.821,0-7.654.187-11.462-.045-5.328-.322-10.651-.217-15.977-.265-7.64-.071-15.286-.086-22.927-.113a24.7,24.7,0,0,0-5.7.426,16.174,16.174,0,0,1-3,.232c-6.228.234-12.458.4-18.683.7-3.505.164-7,.56-10.508.781-1.8.111-3.605.133-5.409.133Zm20.9-14.43a1.575,1.575,0,0,1-.175,1.969,15.545,15.545,0,0,1-2.275,2.38c-.99.851-2.082,1.579-3.125,2.367a5.984,5.984,0,0,0-.682.589c-.265.269-.141,1.193.2,1.67a.9.9,0,0,0,1.334-.069,35.711,35.711,0,0,1,5.037-4.288,8.035,8.035,0,0,1,2.989-1.375,1.453,1.453,0,0,1,1.623.508,1.39,1.39,0,0,1,.04,1.417,8,8,0,0,1-2.408,3.032c-.086.084-.037.338-.006.5.008.056.155.127.237.124,2.494-.075,2.666-.14,4.621-1.724.391-.318.77-.651,1.162-.964.942-.751,1.876-1.515,2.849-2.225a.9.9,0,0,1,.814-.071,2.055,2.055,0,0,1,.719.905,1.193,1.193,0,0,1-.109.865c-.348.723-.766,1.411-1.137,2.124a.955.955,0,0,0-.1.511,1.591,1.591,0,0,0,.83.218,2.382,2.382,0,0,0,1.063-.482c.533-.455.973-1.02,1.489-1.495a1.234,1.234,0,0,1,2.047.211c.441,1.1,1.133,1.21,2.117,1.174,4.718-.176,9.438-.381,14.159-.442,5.834-.074,11.669-.018,17.505-.018v-.193q8.752,0,17.5,0c1.408,0,2.82,0,4.225-.035.777-.018,1.09-.294,1.16-1.074.1-1.1.191-2.2.184-3.3-.013-1.607-.172-3.211-.182-4.819-.027-5.53-.08-11.059.408-16.579a30.767,30.767,0,0,0,.051-3.918,1.138,1.138,0,0,0-.678-.847,44.609,44.609,0,0,0-5.965-.674q-20.37-.189-40.744-.225c-3.517-.006-7.042.149-10.554.362-3.4.205-6.795.718-10.2.847-3.918.147-7.844.043-11.767,0-1.3-.014-2.6-.223-3.9-.262-2-.06-2.157.164-1.754,1.991.367,1.666.685,3.341,1.037,5.01.184.885.357,1.775.612,2.64a.761.761,0,0,0,.7.277,15.711,15.711,0,0,0,1.537-.944,5.067,5.067,0,0,1,3.176-.722c.994.083,1.449.653,1.117,1.623a5.307,5.307,0,0,1-.828,1.575,12.961,12.961,0,0,1-1.521,1.459c-.973.876-1.947,1.747-2.94,2.6a1.378,1.378,0,0,0-.564,1.309,1.319,1.319,0,0,0,.3.8.868.868,0,0,0,.776-.111c1.3-.943,2.567-1.936,3.857-2.891a5.969,5.969,0,0,1,3.062-1.186,1.681,1.681,0,0,1,1.751,2.387,8.363,8.363,0,0,1-1.183,1.72,12.426,12.426,0,0,1-1.851,1.541c-1.719,1.222-3.477,2.392-5.194,3.619-.306.219-.693.617-.685.918a15.783,15.783,0,0,0,.4,2.333c.854.3,1.174-.534,1.731-.841.964-.531,1.836-1.229,2.785-1.8a3.9,3.9,0,0,1,1.391-.513,4.625,4.625,0,0,1,.656-.056A1.486,1.486,0,0,1,609.935,1179.7Zm12.813-29.285s.157.188.2.173a6.949,6.949,0,0,0,.675-.3c-.148-.244-.232-.385-.317-.523C623.119,1149.982,622.927,1150.194,622.749,1150.417Zm53.607-1.122c.031.251.127.641.3.7a7.048,7.048,0,0,0,1.351.242c.7-.052,1.291-.094,1.883-.15.092-.008.174-.094.26-.144-.059-.057-.107-.151-.178-.168-1.054-.266-2.105-.537-3.168-.766l-.023,0C676.634,1149,676.345,1149.217,676.355,1149.295Zm-17.107-3.485a14.593,14.593,0,0,0-2.992.315,18.489,18.489,0,0,1-4.779.491c-3.712.119-7.421.275-11.135.419a.469.469,0,0,0-.287.08c-.129.127-.326.292-.321.438.029,1.584.607,2.178,2.125,2.2q7.383.14,14.765.268v.059c1.409,0,2.819.006,4.225,0a3.345,3.345,0,0,0,.895-.1c.173-.049.422-.217.445-.364.2-1.282.578-2.724-.139-3.8a.941.941,0,0,0-.842-.444C660.6,1145.379,659.869,1145.761,659.248,1145.81Zm-39.842-.974a1.354,1.354,0,0,0,.92,1.063c.537.261.547.778.377,1.293a2.106,2.106,0,0,1-.233.553c-.17.238-.164.4.1.455.674.137,1.357.244,2.036.369.4.075.533-.2.526-.484a47.455,47.455,0,0,0-.2-6.017c-.589-3.962-1.42-7.888-2.139-11.833-.695-3.843-1.791-7.615-2.1-11.534a16.048,16.048,0,0,0-.358-2.073.774.774,0,0,0-.828-.7q-2.549.211-5.088.483c-.466.05-.646.421-.688.849a8.148,8.148,0,0,0-.024.9c.017.878.186,1.092,1.035.933a2.441,2.441,0,0,1,1.733.19.949.949,0,0,1,.328,1.5,4.783,4.783,0,0,1-.918.758c-.344.2-.754.276-1.115.445-.432.2-.716.769-.482.952a1.171,1.171,0,0,0,.724.215c.9-.028,1.8-.19,2.69-.143a1.97,1.97,0,0,1,1.813,2.053c-.175,1.316.1,2.814-1.223,3.8a5.411,5.411,0,0,0-.947,1.156c-.047.062-.038.261.006.283a.981.981,0,0,0,.484.14c.193-.013.4-.2.567-.152.356.1.838.208.992.473a1.411,1.411,0,0,1-.043,1.119,6.234,6.234,0,0,1-.873,1.215c-.557.71-1.135,1.4-1.68,2.12-.342.45-.087.958.507,1.057a.935.935,0,0,0,.189.006c.037,0,.075,0,.112,0a4.625,4.625,0,0,1,.6.036,1.454,1.454,0,0,1,1.342,1.669c-.077.9-.284,1.781-.369,2.676s.807,1.642.5,2.607a.641.641,0,0,0,.012.253C618.443,1143.72,619.259,1143.846,619.406,1144.836Zm-1.946-.9c.045-.111.09-.221.133-.331C617.419,1143.63,617.153,1143.6,617.46,1143.933Zm-3.191-1.841.167.019-.059-.234Zm11.723,32.828a3.555,3.555,0,0,1-3.565-3.664c-.027-.8,0-1.608,0-2.412h.088c0-1.1-.047-2.211.018-3.312a1.962,1.962,0,0,1,1.666-1.876c.785-.158,1.6-.139,2.389-.293,1.472-.29,2.93-.643,4.393-.977a2.2,2.2,0,0,1,2.94,2.1,11.944,11.944,0,0,1,.024,1.2,10.49,10.49,0,0,0,.422,3.571,5.569,5.569,0,0,1,.215,1.484c.106,1.688-.374,2.324-2.125,2.67-.377.076-.805-.056-1.094.291-1.026,1.24-2.451,1.223-3.862,1.255q-.207,0-.415.005C626.719,1174.961,626.355,1174.949,625.992,1174.921Zm23.619-.906c-1.686-.159-3.371-.31-5.057-.466,0,.064-.006.129-.012.193-1.1,0-2.2.014-3.3,0a2.3,2.3,0,0,1-2.256-1.632,1.425,1.425,0,0,1-.084-.286q-.37-2.97-.732-5.941c-.216-1.764.789-3.035,1.785-4.285a2.167,2.167,0,0,1,1.024-.576,16.691,16.691,0,0,1,7.127-.374,4.173,4.173,0,0,1,3.371,3.757c.068.492.02,1,.06,1.5.122,1.49.284,2.976.376,4.468a8.176,8.176,0,0,1-.074,2.078,2.039,2.039,0,0,1-2.03,1.581Q649.713,1174.025,649.611,1174.015Zm-4.779-9.252c-.622.371.011.86.025,1.3a3.814,3.814,0,0,1-.662,1.955,4.99,4.99,0,0,0-.432,1.388c-.025.133.173.38.326.453.138.067.459.03.52-.072.879-1.43,1.309-3.13,2.6-4.325.059-.053-.154-.549-.349-.684a2.547,2.547,0,0,0-.9-.2A3.057,3.057,0,0,0,644.832,1164.763Zm16.921,8.375v-.049c-1,0-2,.069-2.994-.023a6.972,6.972,0,0,1-1.993-.557,1.524,1.524,0,0,1-1-1.391c.045-1.965-.8-3.684-1.381-5.477a2.5,2.5,0,0,1,.99-3.118,4.124,4.124,0,0,1,1.59-.8c1.961-.292,3.94-.5,5.916-.661a4.594,4.594,0,0,1,1.76.26,2.755,2.755,0,0,1,2,2.036,10.539,10.539,0,0,1,.371,1.747,19.22,19.22,0,0,0,.594,3.528c.716,2.933-.424,4.35-3.457,4.5-.3.014-.6.019-.9.019C662.756,1173.151,662.254,1173.138,661.753,1173.138Zm-.011-7.906a8.138,8.138,0,0,0-1.766.175.888.888,0,0,0-.534.62,9.171,9.171,0,0,0-.029,1.779,1.032,1.032,0,0,0,1.115,1.11c.3.018.6,0,.9,0v0c.2,0,.4.012.594,0,.76-.047,1.027-.351.985-1.134-.029-.5-.064-.993-.121-1.487-.086-.757-.385-1.059-1.127-1.059Zm11.506,6.936a3.255,3.255,0,0,1-2.448-3.646,7.487,7.487,0,0,0-.435-3.831,1.608,1.608,0,0,1,1.263-2.29c1.255-.314,2.551-.459,3.588-.636.657.064,1.057.088,1.451.144,2.75.4,2.846.552,3.231,3.315a21.421,21.421,0,0,0,.861,3.48c.981,3.141-.312,3.989-3.132,4.278a5.914,5.914,0,0,1-.6.03A11.347,11.347,0,0,1,673.248,1172.169Zm1.779-6.109a8.446,8.446,0,0,0-.092,1.006,6.115,6.115,0,0,0,.234,1.283c.075.187.459.3.716.348.1.018.372-.26.364-.388a16.241,16.241,0,0,0-.308-2.3c-.041-.193-.425-.31-.651-.461A2.074,2.074,0,0,0,675.027,1166.06Zm-13.8-35.518a13.337,13.337,0,0,1-8.109-2.839,1.64,1.64,0,0,0-1.682-.344,10.524,10.524,0,0,1-7.357-.561c-4.568-1.772-6.83-5.383-7.686-10.025-.127-.687-.07-1.406-.133-2.106a.724.724,0,0,0-.795-.7c-1.1.017-2.207.084-3.31.089a6.757,6.757,0,0,1-3.714-1.083q-1.906-1.21-3.742-2.516a4.93,4.93,0,0,1-1.574-2.521.89.89,0,0,0-1.188-.6c-1.816.547-3.749.67-5.428,1.721a4.73,4.73,0,0,1-4.625.164c-.275-.123-.548-.253-.822-.381a4.711,4.711,0,0,1-2.423-6.507,8.15,8.15,0,0,1,5.524-4.738c.293-.074.591-.124.882-.2a2,2,0,0,0,1.383-1.039c1.989-3.651,5.18-6.112,8.557-8.315a11.631,11.631,0,0,1,6.27-1.914c1.205-.015,2.415-.08,3.62-.069a15.419,15.419,0,0,1,11.569,4.967c.139.146.266.3.406.446.645.658.793.5,1.153.022.664-.882,1.415-1.7,2.138-2.537a15.046,15.046,0,0,1,9.41-4.974,28.147,28.147,0,0,1,11.084.316,20.934,20.934,0,0,1,12.158,8.358,14.088,14.088,0,0,1,2.428,8.015,10.234,10.234,0,0,1-.853,4.036,1.488,1.488,0,0,0,.457,1.83,11.058,11.058,0,0,1,2.885,7.409,8.218,8.218,0,0,1-2.146,6.089,14.424,14.424,0,0,1-8.156,4.813,19.988,19.988,0,0,1-5.389.475,1.961,1.961,0,0,0-1.984,1.052,8.77,8.77,0,0,1-1.371,1.6,9.033,9.033,0,0,1-6.613,2.6Q661.642,1130.569,661.226,1130.542Zm-4.334-8.748c.236.869.377,1.768.565,2.65a1.345,1.345,0,0,0,.959,1.043,10.621,10.621,0,0,0,3.561.524,5.5,5.5,0,0,0,3.35-1.178c.736-.543.858-1.022.386-1.764a7.262,7.262,0,0,1-.826-1.247,2.048,2.048,0,0,1,2.555-2.8c.469.177.926.393,1.394.577a12.784,12.784,0,0,0,9.969-.155,6.868,6.868,0,0,0,4.488-4.922,8.1,8.1,0,0,0-.749-5.279.647.647,0,0,0-.972-.281c-.661.616-1.3,1.255-1.963,1.876a12.26,12.26,0,0,1-4.565,2.853,3.442,3.442,0,0,1-2.365.031,1.937,1.937,0,0,1-.633-3.364c.659-.459,1.356-.867,2.022-1.316a18.631,18.631,0,0,0,5.2-4.972,6.3,6.3,0,0,0,1.049-4.873,11.862,11.862,0,0,0-1.107-3.1,13.215,13.215,0,0,0-4.774-4.928c-4.652-3.054-9.73-3.513-15.052-2.52a1.67,1.67,0,0,0-.815.355,5.539,5.539,0,0,1-2.477,1c-3.91,1.148-6.791,3.385-7.73,7.586a6.168,6.168,0,0,1-.324.842,2.591,2.591,0,0,1-1.8,1.473,1.488,1.488,0,0,1-1.875-1.057,17.846,17.846,0,0,1-.129-2.106,4.265,4.265,0,0,0-1.473-3.2,11.35,11.35,0,0,0-2.441-1.737,15.978,15.978,0,0,0-12.6-.585c-2.918,1-5.134,3.089-7.143,5.383a4.964,4.964,0,0,0-1.218,3.322c-.012.6.094,1.212.027,1.805a1.991,1.991,0,0,1-3.155,1.419c-.24-.176-.412-.438-.637-.636-.644-.561-.886-.582-1.533-.065a5.365,5.365,0,0,0-1.062,1.046,2.617,2.617,0,0,0,.924,3.154.8.8,0,0,0,.584-.006,4.381,4.381,0,0,0,1.018-.614,12.435,12.435,0,0,1,6.92-2.693c.851-.1,1.527-.011,1.953-.892.1-.217.539-.49.7-.428.881.338,1.534-.176,2.274-.445a1.413,1.413,0,0,1,1.867,1.356c.006.5-.113,1-.1,1.5.031.8.127,1.59.194,2.388.586-.492.7-1.251,1.051-1.875.1-.176.176-.36.278-.534a.9.9,0,0,1,1.509.039,3.9,3.9,0,0,1,.5,1.37c.168,1.186.248,2.383.4,3.571.01.074.3.136.467.156.064.007.214-.139.2-.186a3.237,3.237,0,0,1-.246-.853,1,1,0,0,1,1.5-.842,1.914,1.914,0,0,1,.472.37,1.247,1.247,0,0,0,1.612.352,8.492,8.492,0,0,1,1.394-.559,1.521,1.521,0,0,1,1.948,1.627c-.047.592-.147,1.183-.15,1.773,0,.522.436.76,1.037.5,1.427-.626,1.858.114,1.7,1.353-.066.495-.193.984-.293,1.476a2.269,2.269,0,0,0-.112.584c.01.13.153.256.256.365.01.011.149-.116.238-.162,1.268-.659,1.856-.359,1.889.975.018.7,0,1.408,0,2.111h-.045c0,.9-.037,1.808.018,2.709a.781.781,0,0,0,.82.715,1.006,1.006,0,0,0,.689-.467c.189-.337.167-.809.382-1.122a1.545,1.545,0,0,1,.907-.663,1.076,1.076,0,0,1,1.1.851c.162.464.08,1.016.26,1.465a1.653,1.653,0,0,0,.8.779,1.139,1.139,0,0,0,1.351-.364,5.977,5.977,0,0,0,.412-.8c.713-1.082.994-1.221,2.209-.729a2,2,0,0,0,1.4.088,1.729,1.729,0,0,1,.436-.059A1.175,1.175,0,0,1,656.892,1121.794Z" transform="translate(-586.826 -1083.579)"/>
</svg>